<svg width="28" height="26" viewBox="0 0 28 26" fill="none" xmlns="http://www.w3.org/2000/svg">
<path d="M0 22.2438C0 20.3571 0.737498 18.5477 2.05025 17.2136C3.36301 15.8795 5.14348 15.13 7 15.13H21C22.8565 15.13 24.637 15.8795 25.9497 17.2136C27.2625 18.5477 28 20.3571 28 22.2438C28 23.1871 27.6313 24.0919 26.9749 24.7589C26.3185 25.426 25.4283 25.8007 24.5 25.8007H3.5C2.57174 25.8007 1.6815 25.426 1.02513 24.7589C0.368749 24.0919 0 23.1871 0 22.2438Z" fill="black"/>
<path d="M14 11.1214C16.8995 11.1214 19.25 8.73269 19.25 5.78605C19.25 2.83942 16.8995 0.450699 14 0.450699C11.1005 0.450699 8.75 2.83942 8.75 5.78605C8.75 8.73269 11.1005 11.1214 14 11.1214Z" fill="black"/>
</svg>
