<svg width="68" height="68" viewBox="0 0 68 68" fill="none" xmlns="http://www.w3.org/2000/svg">
<g filter="url(#filter0_d_4060_366)">
<path d="M53 6H15C12.2386 6 10 8.23858 10 11V49C10 51.7614 12.2386 54 15 54H53C55.7614 54 58 51.7614 58 49V11C58 8.23858 55.7614 6 53 6Z" fill="white"/>
<path d="M18.4375 37.9688C19.6708 40.3982 21.4395 42.5159 23.6102 44.1624C25.781 45.8089 28.2972 46.9411 30.9692 47.4737C33.6412 48.0062 36.3992 47.9253 39.0353 47.237C41.6715 46.5487 44.117 45.2709 46.1875 43.5V39H40.375C35.4062 42.2812 27.1562 41.0625 24.3438 33.375" fill="#34A853"/>
<path d="M46.1875 43.5C48.2264 41.6043 49.7812 39.0095 50.6632 36.0307C51.5452 33.0518 51.7165 29.8169 51.1562 26.7188H34.375V33.6562H43.9375C43.5 35.9687 42.3125 37.75 40.375 39" fill="#4285F4"/>
<path d="M18.4375 37.9688C17.205 35.4628 16.5658 32.7252 16.5658 29.9531C16.5658 27.1811 17.205 24.4435 18.4375 21.9375L24.3437 26.5312C23.5937 28.8437 23.5937 31.125 24.3437 33.375" fill="#FBBC02"/>
<path d="M24.3438 26.5312C26.4062 20.0625 35.2188 16.3125 41.125 21.8437L46.2812 16.7812C38.9688 9.74999 24.7188 10.0312 18.4375 21.9375" fill="#EA4335"/>
</g>
<defs>
<filter id="filter0_d_4060_366" x="0" y="0" width="68" height="68" filterUnits="userSpaceOnUse" color-interpolation-filters="sRGB">
<feFlood flood-opacity="0" result="BackgroundImageFix"/>
<feColorMatrix in="SourceAlpha" type="matrix" values="0 0 0 0 0 0 0 0 0 0 0 0 0 0 0 0 0 0 127 0" result="hardAlpha"/>
<feOffset dy="4"/>
<feGaussianBlur stdDeviation="5"/>
<feComposite in2="hardAlpha" operator="out"/>
<feColorMatrix type="matrix" values="0 0 0 0 0 0 0 0 0 0 0 0 0 0 0 0 0 0 0.5 0"/>
<feBlend mode="normal" in2="BackgroundImageFix" result="effect1_dropShadow_4060_366"/>
<feBlend mode="normal" in="SourceGraphic" in2="effect1_dropShadow_4060_366" result="shape"/>
</filter>
</defs>
</svg>
