<svg width="29" height="28" viewBox="0 0 29 28" fill="none" xmlns="http://www.w3.org/2000/svg">
<path d="M18.3889 22.4C17.3 22.4 16.3796 22.0617 15.6278 21.385C14.8759 20.7083 14.5 19.88 14.5 18.9C14.5 17.92 14.8759 17.0917 15.6278 16.415C16.3796 15.7383 17.3 15.4 18.3889 15.4C19.4778 15.4 20.3981 15.7383 21.15 16.415C21.9018 17.0917 22.2778 17.92 22.2778 18.9C22.2778 19.88 21.9018 20.7083 21.15 21.385C20.3981 22.0617 19.4778 22.4 18.3889 22.4ZM3.61111 28C2.75556 28 2.02341 27.7261 1.41467 27.1782C0.805926 26.6303 0.501037 25.9709 0.5 25.2V5.6C0.5 4.83 0.804889 4.17107 1.41467 3.6232C2.02444 3.07533 2.75659 2.80093 3.61111 2.8H5.16667V0H8.27778V2.8H20.7222V0H23.8333V2.8H25.3889C26.2444 2.8 26.9771 3.0744 27.5869 3.6232C28.1967 4.172 28.501 4.83093 28.5 5.6V25.2C28.5 25.97 28.1956 26.6294 27.5869 27.1782C26.9781 27.727 26.2455 28.0009 25.3889 28H3.61111ZM3.61111 25.2H25.3889V11.2H3.61111V25.2Z" fill="#9DB3B3"/>
</svg>
