<svg width="29" height="17" viewBox="0 0 29 17" fill="none" xmlns="http://www.w3.org/2000/svg">
<path d="M8.125 12.7296C9.24305 12.7296 10.1934 12.3327 10.976 11.5391C11.7587 10.7454 12.15 9.78168 12.15 8.64788C12.15 7.51407 11.7587 6.55034 10.976 5.75668C10.1934 4.96302 9.24305 4.56619 8.125 4.56619C7.00694 4.56619 6.05659 4.96302 5.27396 5.75668C4.49132 6.55034 4.1 7.51407 4.1 8.64788C4.1 9.78168 4.49132 10.7454 5.27396 11.5391C6.05659 12.3327 7.00694 12.7296 8.125 12.7296ZM8.125 16.8113C5.88889 16.8113 3.98819 16.0176 2.42291 14.4303C0.857636 12.8429 0.0749969 10.9155 0.0749969 8.64788C0.0749969 6.38027 0.857636 4.45281 2.42291 2.86548C3.98819 1.27816 5.88889 0.484497 8.125 0.484497C9.93625 0.484497 11.5185 1.00605 12.8718 2.04914V2.04914C15.1824 3.83008 17.6609 5.92675 20.5782 5.92675H25.7646C26.5178 5.92675 27.2396 6.2287 27.7685 6.76504V6.76504C28.7983 7.80932 28.8535 9.46935 27.8954 10.5798L26.3464 12.3749C25.5369 13.3132 24.13 13.4426 23.1629 12.6678L22.9457 12.4938C22.148 11.8547 20.9962 11.9222 20.2785 12.65V12.65C19.4974 13.4421 18.2193 13.4421 17.4382 12.65L16.2967 11.4925C16.2188 11.4135 16.1125 11.369 16.0016 11.369V11.369C15.8244 11.369 15.6678 11.482 15.6048 11.6476C15.0331 13.152 14.0939 14.3743 12.7873 15.3146C11.4009 16.3124 9.8468 16.8113 8.125 16.8113Z" fill="black"/>
</svg>
