<svg width="25" height="15" viewBox="0 0 25 15" fill="none" xmlns="http://www.w3.org/2000/svg">
<path d="M7 11.1972C7.97222 11.1972 8.79861 10.8521 9.47917 10.162C10.1597 9.47182 10.5 8.63379 10.5 7.64788C10.5 6.66196 10.1597 5.82393 9.47917 5.13379C8.79861 4.44365 7.97222 4.09858 7 4.09858C6.02778 4.09858 5.20139 4.44365 4.52083 5.13379C3.84028 5.82393 3.5 6.66196 3.5 7.64788C3.5 8.63379 3.84028 9.47182 4.52083 10.162C5.20139 10.8521 6.02778 11.1972 7 11.1972ZM7 14.7465C5.05556 14.7465 3.40278 14.0563 2.04167 12.676C0.680556 11.2958 0 9.61971 0 7.64788C0 5.67605 0.680556 3.99999 2.04167 2.61971C3.40278 1.23943 5.05556 0.549286 7 0.549286C8.575 0.549286 9.95089 1.00281 11.1277 1.90985V1.90985C13.1368 3.45849 15.2921 5.28168 17.8289 5.28168H22.3388C22.9938 5.28168 23.6214 5.54424 24.0813 6.01063V6.01063C24.9768 6.91869 25.0248 8.3622 24.1917 9.32777L22.8447 10.8888C22.1408 11.7047 20.9174 11.8172 20.0764 11.1435L19.8876 10.9922C19.1939 10.4364 18.1923 10.4951 17.5683 11.128V11.128C16.889 11.8167 15.7776 11.8167 15.0984 11.128L14.1059 10.1214C14.0381 10.0527 13.9457 10.0141 13.8492 10.0141V10.0141C13.6952 10.0141 13.5589 10.1124 13.5042 10.2564C13.007 11.5645 12.1904 12.6274 11.0542 13.4451C9.84861 14.3127 8.49722 14.7465 7 14.7465Z" fill="black"/>
</svg>
