<svg width="69" height="68" viewBox="0 0 69 68" fill="none" xmlns="http://www.w3.org/2000/svg">
<g filter="url(#filter0_d_4070_393)">
<path d="M53.2 6H15.2C12.4386 6 10.2 8.23858 10.2 11V49C10.2 51.7614 12.4386 54 15.2 54H53.2C55.9614 54 58.2 51.7614 58.2 49V11C58.2 8.23858 55.9614 6 53.2 6Z" fill="white"/>
<path d="M45.7662 16.0312H26.99C26.1947 16.0312 25.55 16.676 25.55 17.4713V39.9038C25.55 40.699 26.1947 41.3438 26.99 41.3438H45.7662C46.5615 41.3438 47.2062 40.699 47.2062 39.9038V17.4713C47.2062 16.676 46.5615 16.0312 45.7662 16.0312Z" fill="#0055AA"/>
<path d="M47.1125 29.1562V31.3125L48.5187 30.5625C48.5187 30.5625 48.5187 29.9062 48.05 29.7188L47.1125 29.1562ZM25.55 33.1875V39.75H32.7687V33.1875H25.55Z" fill="#113366"/>
<path d="M25.55 20.0625V26.625H32.7687V20.0625H25.55ZM32.7687 26.625V33.1875H39.9875V26.625H32.7687ZM39.9875 33.1875V39.75H47.2062V33.1875H39.9875Z" fill="#1177DD"/>
<path d="M32.7687 20.0625V26.625H39.9875V20.0625H32.7687ZM39.9875 26.625V33.1875H47.2062V26.625H39.9875Z" fill="#33AAEE"/>
<path d="M39.9875 20.0625H47.2062V26.625H39.9875V20.0625Z" fill="#55CCFF"/>
<path d="M48.5187 30.4688V42.4688C48.5187 43.125 48.3312 43.875 47.8625 44.1562C47.5812 44.3438 36.2375 37.5 36.2375 37.5L48.5187 30.4688Z" fill="#1199EE"/>
<path d="M24.8 30.9375C24.425 31.2188 24.2375 31.5938 24.2375 32.0625V43.0312C24.2375 43.7812 24.8 44.3438 25.55 44.3438H47.1125C47.4875 44.3438 47.5812 44.3438 47.8625 44.1562" fill="#22AAEE"/>
<path d="M31.0475 22.125H17.8025C17.0072 22.125 16.3625 22.7697 16.3625 23.565V36.81C16.3625 37.6053 17.0072 38.25 17.8025 38.25H31.0475C31.8428 38.25 32.4875 37.6053 32.4875 36.81V23.565C32.4875 22.7697 31.8428 22.125 31.0475 22.125Z" fill="#1188EE"/>
<path d="M24.2375 34.5938C22.0812 34.5938 20.2062 32.9062 20.2062 30.375C20.2062 27.75 21.7062 25.875 24.3312 25.875C26.8625 25.875 28.3625 27.8438 28.3625 30.1875C28.3625 32.9062 26.675 34.5938 24.2375 34.5938ZM24.3312 27.5625C22.8312 27.5625 22.175 28.875 22.175 30.2812C22.175 31.9688 23.2062 32.9062 24.2375 32.9062C25.55 32.9062 26.3937 31.9688 26.3937 30.2812C26.3937 28.5938 25.6437 27.5625 24.3312 27.5625Z" fill="white"/>
</g>
<defs>
<filter id="filter0_d_4070_393" x="0.199997" y="0" width="68" height="68" filterUnits="userSpaceOnUse" color-interpolation-filters="sRGB">
<feFlood flood-opacity="0" result="BackgroundImageFix"/>
<feColorMatrix in="SourceAlpha" type="matrix" values="0 0 0 0 0 0 0 0 0 0 0 0 0 0 0 0 0 0 127 0" result="hardAlpha"/>
<feOffset dy="4"/>
<feGaussianBlur stdDeviation="5"/>
<feComposite in2="hardAlpha" operator="out"/>
<feColorMatrix type="matrix" values="0 0 0 0 0 0 0 0 0 0 0 0 0 0 0 0 0 0 0.5 0"/>
<feBlend mode="normal" in2="BackgroundImageFix" result="effect1_dropShadow_4070_393"/>
<feBlend mode="normal" in="SourceGraphic" in2="effect1_dropShadow_4070_393" result="shape"/>
</filter>
</defs>
</svg>
