<svg width="30" height="32" viewBox="0 0 30 32" fill="none" xmlns="http://www.w3.org/2000/svg">
<path d="M26.25 9.93104H3.75C2.75574 9.93191 1.80249 10.281 1.09945 10.9016C0.3964 11.5222 0.000992769 12.3637 0 13.2414V19.8621C0 20.4474 0.263392 21.0087 0.732233 21.4226C1.20107 21.8365 1.83696 22.069 2.5 22.069V29.7931C2.5 30.3784 2.76339 30.9397 3.23223 31.3536C3.70107 31.7675 4.33696 32 5 32H10C10.663 32 11.2989 31.7675 11.7678 31.3536C12.2366 30.9397 12.5 30.3784 12.5 29.7931V16.5517H10V29.7931H5V19.8621H2.5V13.2414C2.5 12.9487 2.6317 12.6681 2.86612 12.4611C3.10054 12.2542 3.41848 12.1379 3.75 12.1379H26.25C26.5815 12.1379 26.8995 12.2542 27.1339 12.4611C27.3683 12.6681 27.5 12.9487 27.5 13.2414V19.8621H25V29.7931H20V16.5517H17.5V29.7931C17.5 30.3784 17.7634 30.9397 18.2322 31.3536C18.7011 31.7675 19.337 32 20 32H25C25.663 32 26.2989 31.7675 26.7678 31.3536C27.2366 30.9397 27.5 30.3784 27.5 29.7931V22.069C28.163 22.069 28.7989 21.8365 29.2678 21.4226C29.7366 21.0087 30 20.4474 30 19.8621V13.2414C29.999 12.3637 29.6036 11.5222 28.9006 10.9016C28.1975 10.281 27.2443 9.93191 26.25 9.93104ZM7.5 8.82759C6.51109 8.82759 5.54439 8.56872 4.72215 8.08373C3.8999 7.59874 3.25904 6.9094 2.8806 6.10288C2.50216 5.29637 2.40315 4.4089 2.59607 3.55271C2.789 2.69651 3.2652 1.91005 3.96447 1.29277C4.66373 0.675492 5.55464 0.255119 6.52455 0.0848118C7.49445 -0.0854954 8.49979 0.00191244 9.41342 0.335982C10.327 0.670051 11.1079 1.23578 11.6573 1.96162C12.2068 2.68747 12.5 3.54083 12.5 4.41379C12.4987 5.58405 11.9715 6.70603 11.0341 7.53353C10.0967 8.36102 8.82568 8.82642 7.5 8.82759ZM7.5 2.2069C7.00555 2.2069 6.5222 2.33633 6.11107 2.57883C5.69995 2.82132 5.37952 3.16599 5.1903 3.56925C5.00108 3.97251 4.95157 4.41624 5.04804 4.84434C5.1445 5.27244 5.3826 5.66567 5.73223 5.97431C6.08187 6.28295 6.52732 6.49313 7.01227 6.57829C7.49723 6.66344 7.99989 6.61974 8.45671 6.4527C8.91352 6.28567 9.30397 6.0028 9.57867 5.63988C9.85338 5.27696 10 4.85028 10 4.41379C10 3.82849 9.73661 3.26716 9.26777 2.85328C8.79893 2.43941 8.16304 2.2069 7.5 2.2069ZM22.5 8.82759C21.5111 8.82759 20.5444 8.56872 19.7222 8.08373C18.8999 7.59874 18.259 6.9094 17.8806 6.10288C17.5022 5.29637 17.4031 4.4089 17.5961 3.55271C17.789 2.69651 18.2652 1.91005 18.9645 1.29277C19.6637 0.675492 20.5546 0.255119 21.5245 0.0848118C22.4945 -0.0854954 23.4998 0.00191244 24.4134 0.335982C25.327 0.670051 26.1079 1.23578 26.6573 1.96162C27.2068 2.68747 27.5 3.54083 27.5 4.41379C27.4987 5.58405 26.9715 6.70603 26.0341 7.53353C25.0967 8.36102 23.8257 8.82642 22.5 8.82759ZM22.5 2.2069C22.0055 2.2069 21.5222 2.33633 21.1111 2.57883C20.7 2.82132 20.3795 3.16599 20.1903 3.56925C20.0011 3.97251 19.9516 4.41624 20.048 4.84434C20.1445 5.27244 20.3826 5.66567 20.7322 5.97431C21.0819 6.28295 21.5273 6.49313 22.0123 6.57829C22.4972 6.66344 22.9999 6.61974 23.4567 6.4527C23.9135 6.28567 24.304 6.0028 24.5787 5.63988C24.8534 5.27696 25 4.85028 25 4.41379C25 3.82849 24.7366 3.26716 24.2678 2.85328C23.7989 2.43941 23.163 2.2069 22.5 2.2069Z" fill="#9DB3B3"/>
</svg>
